<svg width="27" height="26" viewBox="0 0 27 26" fill="none" xmlns="http://www.w3.org/2000/svg">
    <g clip-path="url(#clip0_1544_6555)">
        <path d="M11.8235 5.763C11.0352 5.763 10.2793 6.06798 9.72188 6.61085C9.1645 7.15372 8.85136 7.89001 8.85136 8.65774C8.85136 9.42547 9.1645 10.1618 9.72188 10.7046C10.2793 11.2475 11.0352 11.5525 11.8235 11.5525C12.6118 11.5525 13.3677 11.2475 13.9251 10.7046C14.4825 10.1618 14.7956 9.42547 14.7956 8.65774C14.7956 7.89001 14.4825 7.15372 13.9251 6.61085C13.3677 6.06798 12.6118 5.763 11.8235 5.763ZM10.3374 8.65774C10.3374 8.27387 10.494 7.90573 10.7727 7.6343C11.0514 7.36286 11.4294 7.21037 11.8235 7.21037C12.2176 7.21037 12.5956 7.36286 12.8743 7.6343C13.153 7.90573 13.3096 8.27387 13.3096 8.65774C13.3096 9.04161 13.153 9.40975 12.8743 9.68118C12.5956 9.95262 12.2176 10.1051 11.8235 10.1051C11.4294 10.1051 11.0514 9.95262 10.7727 9.68118C10.494 9.40975 10.3374 9.04161 10.3374 8.65774ZM1.42102 3.59195C1.42102 3.01615 1.65587 2.46394 2.07391 2.05679C2.49195 1.64963 3.05893 1.4209 3.65012 1.4209H19.9969C20.5881 1.4209 21.155 1.64963 21.5731 2.05679C21.9911 2.46394 22.226 3.01615 22.226 3.59195V8.65774H20.7399V7.21037H19.2538C18.4656 7.21037 17.7096 6.90539 17.1522 6.36252C16.5948 5.81966 16.2817 5.08337 16.2817 4.31564V2.86827H7.36529V4.31564C7.36529 5.08337 7.05216 5.81966 6.49477 6.36252C5.93739 6.90539 5.18142 7.21037 4.39316 7.21037H2.90709V10.1051H4.39316C5.18142 10.1051 5.93739 10.4101 6.49477 10.953C7.05216 11.4958 7.36529 12.2321 7.36529 12.9998V14.4472H14.7956V15.8946H3.65012C3.05893 15.8946 2.49195 15.6658 2.07391 15.2587C1.65587 14.8515 1.42102 14.2993 1.42102 13.7235V3.59195ZM3.65012 2.86827C3.45306 2.86827 3.26406 2.94451 3.12472 3.08023C2.98537 3.21595 2.90709 3.40002 2.90709 3.59195V5.763H4.39316C4.78729 5.763 5.16527 5.61051 5.44397 5.33908C5.72266 5.06765 5.87922 4.6995 5.87922 4.31564V2.86827H3.65012ZM19.9969 2.86827H17.7678V4.31564C17.7678 4.6995 17.9243 5.06765 18.203 5.33908C18.4817 5.61051 18.8597 5.763 19.2538 5.763H20.7399V3.59195C20.7399 3.40002 20.6616 3.21595 20.5223 3.08023C20.3829 2.94451 20.1939 2.86827 19.9969 2.86827ZM3.65012 14.4472H5.87922V12.9998C5.87922 12.616 5.72266 12.2478 5.44397 11.9764C5.16527 11.705 4.78729 11.5525 4.39316 11.5525H2.90709V13.7235C2.90709 13.9155 2.98537 14.0995 3.12472 14.2353C3.26406 14.371 3.45306 14.4472 3.65012 14.4472ZM23.712 8.65774V4.43866C24.1468 4.58838 24.5232 4.86575 24.7894 5.23256C25.0556 5.59936 25.1984 6.03753 25.1981 6.48669V8.65774H23.712ZM14.7956 17.342V18.7893H6.62226C6.16109 18.7896 5.7112 18.6505 5.33459 18.3913C4.95798 18.132 4.67319 17.7654 4.51947 17.342H14.7956ZM18.5108 10.1051C17.9196 10.1051 17.3526 10.3338 16.9346 10.741C16.5166 11.1481 16.2817 11.7004 16.2817 12.2762V22.4077C16.2817 22.9835 16.5166 23.5358 16.9346 23.9429C17.3526 24.3501 17.9196 24.5788 18.5108 24.5788H24.4551C25.0463 24.5788 25.6133 24.3501 26.0313 23.9429C26.4493 23.5358 26.6842 22.9835 26.6842 22.4077V12.2762C26.6842 11.7004 26.4493 11.1481 26.0313 10.741C25.6133 10.3338 25.0463 10.1051 24.4551 10.1051H18.5108ZM18.5108 15.8946H19.9969C20.1939 15.8946 20.3829 15.9708 20.5223 16.1065C20.6616 16.2423 20.7399 16.4263 20.7399 16.6183C20.7399 16.8102 20.6616 16.9943 20.5223 17.13C20.3829 17.2657 20.1939 17.342 19.9969 17.342H18.5108C18.3137 17.342 18.1247 17.2657 17.9854 17.13C17.8461 16.9943 17.7678 16.8102 17.7678 16.6183C17.7678 16.4263 17.8461 16.2423 17.9854 16.1065C18.1247 15.9708 18.3137 15.8946 18.5108 15.8946ZM22.969 15.8946H24.4551C24.6521 15.8946 24.8411 15.9708 24.9805 16.1065C25.1198 16.2423 25.1981 16.4263 25.1981 16.6183C25.1981 16.8102 25.1198 16.9943 24.9805 17.13C24.8411 17.2657 24.6521 17.342 24.4551 17.342H22.969C22.7719 17.342 22.5829 17.2657 22.4436 17.13C22.3043 16.9943 22.226 16.8102 22.226 16.6183C22.226 16.4263 22.3043 16.2423 22.4436 16.1065C22.5829 15.9708 22.7719 15.8946 22.969 15.8946ZM18.5108 18.7893H19.9969C20.1939 18.7893 20.3829 18.8656 20.5223 19.0013C20.6616 19.137 20.7399 19.3211 20.7399 19.513C20.7399 19.7049 20.6616 19.889 20.5223 20.0247C20.3829 20.1604 20.1939 20.2367 19.9969 20.2367H18.5108C18.3137 20.2367 18.1247 20.1604 17.9854 20.0247C17.8461 19.889 17.7678 19.7049 17.7678 19.513C17.7678 19.3211 17.8461 19.137 17.9854 19.0013C18.1247 18.8656 18.3137 18.7893 18.5108 18.7893ZM22.969 18.7893H24.4551C24.6521 18.7893 24.8411 18.8656 24.9805 19.0013C25.1198 19.137 25.1981 19.3211 25.1981 19.513C25.1981 19.7049 25.1198 19.889 24.9805 20.0247C24.8411 20.1604 24.6521 20.2367 24.4551 20.2367H22.969C22.7719 20.2367 22.5829 20.1604 22.4436 20.0247C22.3043 19.889 22.226 19.7049 22.226 19.513C22.226 19.3211 22.3043 19.137 22.4436 19.0013C22.5829 18.8656 22.7719 18.7893 22.969 18.7893ZM18.5108 21.6841H19.9969C20.1939 21.6841 20.3829 21.7603 20.5223 21.896C20.6616 22.0317 20.7399 22.2158 20.7399 22.4077C20.7399 22.5997 20.6616 22.7837 20.5223 22.9195C20.3829 23.0552 20.1939 23.1314 19.9969 23.1314H18.5108C18.3137 23.1314 18.1247 23.0552 17.9854 22.9195C17.8461 22.7837 17.7678 22.5997 17.7678 22.4077C17.7678 22.2158 17.8461 22.0317 17.9854 21.896C18.1247 21.7603 18.3137 21.6841 18.5108 21.6841ZM22.969 21.6841H24.4551C24.6521 21.6841 24.8411 21.7603 24.9805 21.896C25.1198 22.0317 25.1981 22.2158 25.1981 22.4077C25.1981 22.5997 25.1198 22.7837 24.9805 22.9195C24.8411 23.0552 24.6521 23.1314 24.4551 23.1314H22.969C22.7719 23.1314 22.5829 23.0552 22.4436 22.9195C22.3043 22.7837 22.226 22.5997 22.226 22.4077C22.226 22.2158 22.3043 22.0317 22.4436 21.896C22.5829 21.7603 22.7719 21.6841 22.969 21.6841ZM17.7678 12.2762C17.7678 12.0842 17.8461 11.9002 17.9854 11.7644C18.1247 11.6287 18.3137 11.5525 18.5108 11.5525H24.4551C24.6521 11.5525 24.8411 11.6287 24.9805 11.7644C25.1198 11.9002 25.1981 12.0842 25.1981 12.2762V13.7235C25.1981 13.9155 25.1198 14.0995 24.9805 14.2353C24.8411 14.371 24.6521 14.4472 24.4551 14.4472H18.5108C18.3137 14.4472 18.1247 14.371 17.9854 14.2353C17.8461 14.0995 17.7678 13.9155 17.7678 13.7235V12.2762Z" fill="white"/>
    </g>
    <defs>
        <clipPath id="clip0_1544_6555">
            <rect width="25.2632" height="25.2632" fill="white" transform="translate(0.894714 0.368164)"/>
        </clipPath>
    </defs>
</svg>
