<svg width="25" height="24" viewBox="0 0 25 24" fill="none" xmlns="http://www.w3.org/2000/svg">
    <path d="M7.86841 6.54545C7.23542 6.54545 6.71051 6.05091 6.71051 5.45455V1.09091C6.71051 0.494545 7.23542 0 7.86841 0C8.50139 0 9.0263 0.494545 9.0263 1.09091V5.45455C9.0263 6.05091 8.50139 6.54545 7.86841 6.54545Z" fill="white"/>
    <path d="M17.1315 6.54545C16.4985 6.54545 15.9736 6.05091 15.9736 5.45455V1.09091C15.9736 0.494545 16.4985 0 17.1315 0C17.7645 0 18.2894 0.494545 18.2894 1.09091V5.45455C18.2894 6.05091 17.7645 6.54545 17.1315 6.54545Z" fill="white"/>
    <path d="M12.5 15.3708C13.1021 15.3708 13.5421 15.0326 13.5421 14.498C13.5421 13.9526 13.1021 13.6362 12.5 13.6362C11.8979 13.6362 11.4579 13.9526 11.4579 14.498C11.4579 15.0326 11.8979 15.3708 12.5 15.3708Z" fill="white"/>
    <path d="M12.5001 18.5457C13.2291 18.5457 13.8201 18.0915 13.8201 17.5311C13.8201 16.9708 13.2291 16.5166 12.5001 16.5166C11.771 16.5166 11.1801 16.9708 11.1801 17.5311C11.1801 18.0915 11.771 18.5457 12.5001 18.5457Z" fill="white"/>
    <path d="M6.51674 8.51241L6.51668 8.5125L6.52564 8.51813C6.65573 8.59984 6.79493 8.66539 6.90387 8.71669L6.91429 8.72159C7.05112 8.78605 7.19032 8.83893 7.33177 8.87935C7.49593 8.93044 7.67925 8.97078 7.88008 8.98543C8.09605 9.00994 8.31237 9.00994 8.52834 8.98543C8.72687 8.97095 8.90829 8.93136 9.071 8.8811C9.22285 8.84119 9.36751 8.78729 9.50286 8.71748L9.50455 8.71669C9.61192 8.66613 9.74869 8.60173 9.87716 8.52165C10.7327 8.01222 11.3095 7.09282 11.3095 6.04381V4.90927C11.3095 4.61306 11.5782 4.31836 11.9674 4.31836H13.0326C13.4218 4.31836 13.6905 4.61306 13.6905 4.90927V6.04381C13.6905 7.80692 15.2934 9.16358 17.122 8.98511C18.7483 8.82786 19.9011 7.42002 19.9011 5.902V5.7929C19.9011 5.3496 20.4964 4.98392 20.9766 5.31752C22.213 6.20477 23 7.57554 23 9.13109V18.6874C23 21.3182 20.7281 23.5002 17.8611 23.5002H7.13895C4.27186 23.5002 2 21.3182 2 18.6874V9.13109C2 9.00133 2.00977 8.86843 2.02149 8.71385C2.03302 8.58373 2.04282 8.48791 2.06042 8.39674L2.06279 8.38445L2.06454 8.37206C2.08458 8.23048 2.11422 8.09224 2.15217 7.9671L2.15225 7.96712L2.15478 7.95817C2.20226 7.79044 2.24076 7.65666 2.29603 7.52649L1.83665 7.33145L2.29603 7.52649C2.30516 7.50497 2.31267 7.48566 2.31779 7.47245L2.31932 7.46848C2.32407 7.45621 2.32615 7.45085 2.32836 7.44549C2.32869 7.44469 2.32897 7.44404 2.32919 7.44351L2.36094 7.39365L2.38056 7.33358C2.40903 7.24641 2.45247 7.15988 2.5167 7.03834L2.52822 7.02749L2.56692 6.95457C2.64481 6.80779 2.72348 6.67068 2.80519 6.55927L2.82401 6.54153L2.85651 6.49179C2.93914 6.36527 3.02354 6.25211 3.12047 6.15249L3.1347 6.13786L3.14769 6.12213C3.36358 5.86062 3.62305 5.61559 3.91644 5.39841L3.94025 5.38078L3.94931 5.37225L3.956 5.36772L3.95762 5.36663C3.96686 5.36041 3.98433 5.34867 4.00241 5.33542C4.01374 5.32712 4.02719 5.31688 4.04188 5.30473C4.05985 5.2926 4.06689 5.28914 4.07518 5.28523L4.14711 5.25135L4.156 5.24297C4.62313 5.05353 5.09895 5.39721 5.09895 5.7929V5.902C5.09895 6.95904 5.65108 7.9428 6.51674 8.51241ZM9.10526 17.7165C9.10526 18.544 9.44928 19.2417 10.0773 19.7184C10.6899 20.1835 11.5318 20.4093 12.5 20.4093C13.463 20.4093 14.3044 20.1832 14.9178 19.7188C15.5464 19.243 15.8947 18.5458 15.8947 17.7165C15.8947 17.0041 15.5969 16.3718 15.0799 15.9067C15.4156 15.5192 15.6168 15.0234 15.6168 14.422C15.6168 13.5546 15.2439 12.8703 14.644 12.4168C14.0595 11.9749 13.2904 11.7729 12.5 11.7729C11.7096 11.7729 10.9383 11.9748 10.3513 12.4159C9.74894 12.8686 9.37158 13.5528 9.37158 14.422C9.37158 15.0268 9.58042 15.5219 9.91435 15.9074C9.40274 16.3725 9.10526 17.0046 9.10526 17.7165Z" stroke="white"/>
</svg>
